<svg xmlns="http://www.w3.org/2000/svg" viewBox="0 0 512 512">
  <defs>
    <linearGradient id="bg" x1="0%" y1="0%" x2="100%" y2="100%">
      <stop offset="0%" stop-color="#1c073d"/>
      <stop offset="100%" stop-color="#4c12a1"/>
    </linearGradient>
    <linearGradient id="ember" x1="0%" y1="100%" x2="100%" y2="0%">
      <stop offset="0%" stop-color="#E53E3E"/>
      <stop offset="100%" stop-color="#ff7043"/>
    </linearGradient>
  </defs>
  <!-- Rounded background -->
  <rect width="512" height="512" rx="115" fill="url(#bg)"/>
  <!-- Grill grates top bar -->
  <rect x="108" y="148" width="296" height="28" rx="14" fill="white" opacity="0.25"/>
  <!-- Flame shape (teardrop/fire) -->
  <path d="M256 108 C256 108 168 198 168 288 C168 334 186 364 212 382 C210 362 218 344 232 334 C236 358 248 374 256 384 C264 374 276 358 280 334 C294 344 302 362 300 382 C326 364 344 334 344 288 C344 198 256 108 256 108 Z" fill="white"/>
  <!-- Ember inner flame -->
  <path d="M256 200 C256 200 218 248 218 290 C218 316 232 334 248 342 C246 328 252 316 258 308 C262 322 264 334 264 342 C280 334 294 316 294 290 C294 248 256 200 256 200 Z" fill="url(#ember)"/>
  <!-- Grill grates bottom bars -->
  <rect x="140" y="330" width="232" height="22" rx="11" fill="white" opacity="0.20"/>
  <rect x="156" y="370" width="200" height="22" rx="11" fill="white" opacity="0.14"/>
</svg>