<svg width="24" height="24" viewBox="0 0 24 24" fill="none" xmlns="http://www.w3.org/2000/svg">
<path d="M18.9682 9.03081C17.9379 5.32528 17.5694 4 12.0089 4C6.44842 4 6.07994 5.32526 5.0497 9.03081C4.91925 9.5 4.78026 9.74528 4.22421 9.31374C3.85875 9.03012 3.47707 9.00002 3.11212 9.00001L3.0942 9.00001C2.54419 8.99988 2 8.99975 2 9.99997C2 10.7267 2.46605 11 3.11212 11C3.40547 11.0036 3.77048 11.0048 4.0852 10.8828C4.15712 10.8549 4.22791 10.8229 4.30526 10.7878C4.94847 10.4965 6.04484 10 12.009 10C17.9574 10.001 19.0522 10.4968 19.6947 10.7878C19.7721 10.8229 19.8429 10.8549 19.9148 10.8828C20.2295 11.0048 20.5945 11.0035 20.8879 11C21.534 11 22 10.7267 22 9.99997C22 8.99975 21.4558 8.99987 20.9058 9L20.8879 9.00001C20.5289 9.00001 20.1537 9.02914 19.7937 9.30006C19.2376 9.7185 19.0986 9.5 18.9682 9.03081Z" fill="#cbd5e1"/>
<path d="M3.11211 14.5C3.11211 15.813 3.23437 16.884 4.22421 17.6514V18.5C4.22421 19.5 4.22421 20 5.89237 20C7.4092 20 7.5468 19.5866 7.55928 18.7598C8.71736 18.9178 10.175 19 12.009 19C13.8429 19 15.3005 18.9178 16.4586 18.7598C16.4711 19.5866 16.6087 20 18.1255 20C19.7937 20 19.7937 19.5 19.7937 18.5V17.6514C20.7835 16.884 20.9058 15.813 20.9058 14.5C20.9058 11.7 19.7937 11 12.009 11C4.22421 11 3.11211 11.7 3.11211 14.5ZM9.78474 15C9.78474 14.4477 10.2826 14 10.8968 14H13.1211C13.7353 14 14.2332 14.4477 14.2332 15C14.2332 15.5523 13.7353 16 13.1211 16H10.8968C10.2826 16 9.78474 15.5523 9.78474 15ZM19 14.5C19 15.4307 18.4307 16 17.5 16C16.5693 16 16 15.4307 16 14.5C16 13.5693 16.5693 13 17.5 13C18.4307 13 19 13.5693 19 14.5ZM6.5 16C5.5693 16 5 15.4307 5 14.5C5 13.5693 5.5693 13 6.5 13C7.4307 13 8 13.5693 8 14.5C8 15.4307 7.4307 16 6.5 16Z" fill="#cbd5e1"/>
</svg>
