<svg width="1360" height="91" viewBox="0 0 1360 91" fill="none" xmlns="http://www.w3.org/2000/svg">
<g clip-path="url(#clip0_197_9949)">
<g opacity="0.9">
<path d="M280.531 68.7384C280.603 56.7365 270.902 46.9155 258.9 46.8388C246.898 46.7669 237.072 56.4729 237 68.47C236.929 80.4719 246.63 90.2978 258.632 90.3697C270.634 90.4416 280.455 80.7403 280.531 68.7384ZM248.873 68.5467C248.906 63.0922 253.374 58.6825 258.828 58.7161C264.283 58.7496 268.692 63.2168 268.659 68.6713C268.625 74.1259 264.158 78.5355 258.704 78.5068C253.249 78.4732 248.839 74.006 248.868 68.5515L248.873 68.5467Z" fill="#FFE4E6"/>
<path d="M315.252 71.8107C303.251 71.7388 293.43 81.44 293.353 93.4419C293.281 105.444 302.982 115.27 314.984 115.342C326.986 115.413 336.807 105.712 336.884 93.7104C336.956 81.7084 327.254 71.8874 315.252 71.8107ZM315.061 103.469C309.606 103.436 305.192 98.9684 305.225 93.5138C305.259 88.0593 309.726 83.6496 315.181 83.6832C320.635 83.7168 325.045 88.1839 325.011 93.6385C324.978 99.093 320.51 103.503 315.056 103.474L315.061 103.469Z" fill="#FFE4E6"/>
<path d="M271.257 117.93L315.3 46.0863L301.429 46L257.385 117.844L271.257 117.93Z" fill="#FFE4E6"/>
</g>
<g opacity="0.5">
<path d="M46.5313 -2.26157C46.6032 -14.2635 36.902 -24.0845 24.9 -24.1612C12.8981 -24.2331 3.07229 -14.5271 3.0004 -2.52998C2.9285 9.47193 12.6297 19.2978 24.6316 19.3697C36.6335 19.4416 46.4546 9.74034 46.5313 -2.26157ZM14.8729 -2.45329C14.9064 -7.90784 19.3736 -12.3175 24.8282 -12.2839C30.2827 -12.2504 34.6923 -7.78322 34.6588 -2.32867C34.6252 3.12587 30.1581 7.53552 24.7035 7.50676C19.249 7.47321 14.8393 3.00604 14.8681 -2.4485L14.8729 -2.45329Z" fill="#FFE4E6"/>
<path d="M81.2525 0.8107C69.2506 0.738803 59.4295 10.44 59.3528 22.4419C59.2809 34.4439 68.9821 44.2697 80.9841 44.3416C92.986 44.4135 102.807 34.7123 102.884 22.7104C102.956 10.7084 93.2544 0.887389 81.2525 0.8107ZM81.0607 32.4691C75.6062 32.4355 71.1918 27.9684 71.2253 22.5138C71.2589 17.0593 75.726 12.6496 81.1806 12.6832C86.6351 12.7168 91.0448 17.1839 91.0112 22.6385C90.9777 28.093 86.5105 32.5027 81.056 32.4739L81.0607 32.4691Z" fill="#FFE4E6"/>
<path d="M37.2567 46.93L81.3004 -24.9137L67.4292 -25L23.3854 46.8437L37.2567 46.93Z" fill="#FFE4E6"/>
</g>
<g opacity="0.7">
<path d="M869.645 59.172C869.671 54.8586 866.184 51.329 861.871 51.3014C857.557 51.2756 854.026 54.7639 854 59.0756C853.974 63.389 857.461 66.9203 861.774 66.9462C866.088 66.972 869.617 63.4855 869.645 59.172ZM858.267 59.1031C858.279 57.1428 859.885 55.558 861.845 55.57C863.805 55.5821 865.39 57.1876 865.378 59.1479C865.366 61.1082 863.76 62.6931 861.8 62.6827C859.84 62.6707 858.255 61.0652 858.265 59.1048L858.267 59.1031Z" fill="#FFE4E6"/>
<path d="M882.124 60.2763C877.81 60.2504 874.28 63.737 874.253 68.0504C874.227 72.3638 877.714 75.8952 882.027 75.921C886.34 75.9469 889.87 72.4603 889.898 68.1469C889.923 63.8335 886.437 60.3038 882.124 60.2763ZM882.055 71.6541C880.094 71.6421 878.508 70.0366 878.52 68.0763C878.532 66.1159 880.137 64.5311 882.098 64.5432C884.058 64.5552 885.643 66.1607 885.631 68.121C885.619 70.0814 884.013 71.6662 882.053 71.6558L882.055 71.6541Z" fill="#FFE4E6"/>
<path d="M866.312 76.8512L882.141 51.031L877.156 51L861.326 76.8202L866.312 76.8512Z" fill="#FFE4E6"/>
</g>
<g opacity="0.7">
<path d="M956.645 9.17203C956.671 4.85861 953.184 1.32897 948.871 1.30141C944.557 1.27557 941.026 4.76386 941 9.07556C940.974 13.389 944.461 16.9203 948.774 16.9462C953.088 16.972 956.617 13.4855 956.645 9.17203ZM945.267 9.10313C945.279 7.14279 946.885 5.55799 948.845 5.57005C950.805 5.5821 952.39 7.18758 952.378 9.14791C952.366 11.1082 950.76 12.6931 948.8 12.6827C946.84 12.6707 945.255 11.0652 945.265 9.10485L945.267 9.10313Z" fill="#FFE4E6"/>
<path d="M969.124 10.2763C964.81 10.2504 961.28 13.737 961.253 18.0504C961.227 22.3638 964.714 25.8952 969.027 25.921C973.34 25.9469 976.87 22.4603 976.898 18.1469C976.923 13.8335 973.437 10.3038 969.124 10.2763ZM969.055 21.6541C967.094 21.6421 965.508 20.0366 965.52 18.0763C965.532 16.1159 967.137 14.5311 969.098 14.5432C971.058 14.5552 972.643 16.1607 972.631 18.121C972.619 20.0814 971.013 21.6662 969.053 21.6558L969.055 21.6541Z" fill="#FFE4E6"/>
<path d="M953.312 26.8512L969.141 1.03101L964.156 1L948.326 26.8202L953.312 26.8512Z" fill="#FFE4E6"/>
</g>
<g opacity="0.5">
<path d="M236.645 9.17203C236.671 4.85861 233.184 1.32897 228.871 1.30141C224.557 1.27557 221.026 4.76386 221 9.07556C220.974 13.389 224.461 16.9203 228.774 16.9462C233.088 16.972 236.617 13.4855 236.645 9.17203ZM225.267 9.10313C225.279 7.14279 226.885 5.55799 228.845 5.57005C230.805 5.5821 232.39 7.18758 232.378 9.14791C232.366 11.1082 230.76 12.6931 228.8 12.6827C226.84 12.6707 225.255 11.0652 225.265 9.10485L225.267 9.10313Z" fill="#FFE4E6"/>
<path d="M249.124 10.2763C244.81 10.2504 241.28 13.737 241.253 18.0504C241.227 22.3638 244.714 25.8952 249.027 25.921C253.34 25.9469 256.87 22.4603 256.898 18.1469C256.923 13.8335 253.437 10.3038 249.124 10.2763ZM249.055 21.6541C247.094 21.6421 245.508 20.0366 245.52 18.0763C245.532 16.1159 247.137 14.5311 249.098 14.5432C251.058 14.5552 252.643 16.1607 252.631 18.121C252.619 20.0814 251.013 21.6662 249.053 21.6558L249.055 21.6541Z" fill="#FFE4E6"/>
<path d="M233.312 26.8512L249.141 1.03101L244.156 1L228.326 26.8202L233.312 26.8512Z" fill="#FFE4E6"/>
</g>
<g opacity="0.9">
<path d="M788.531 0.738428C788.603 -11.2635 778.902 -21.0845 766.9 -21.1612C754.898 -21.2331 745.072 -11.5271 745 0.470016C744.929 12.4719 754.63 22.2978 766.632 22.3697C778.634 22.4416 788.455 12.7403 788.531 0.738428ZM756.873 0.546705C756.906 -4.90784 761.374 -9.31748 766.828 -9.28393C772.283 -9.25038 776.692 -4.78322 776.659 0.671326C776.625 6.12587 772.158 10.5355 766.704 10.5068C761.249 10.4732 756.839 6.00604 756.868 0.551498L756.873 0.546705Z" fill="#FFE4E6"/>
<path d="M823.252 3.8107C811.251 3.7388 801.43 13.44 801.353 25.4419C801.281 37.4439 810.982 47.2697 822.984 47.3416C834.986 47.4135 844.807 37.7123 844.884 25.7104C844.956 13.7084 835.254 3.88739 823.252 3.8107ZM823.061 35.4691C817.606 35.4355 813.192 30.9684 813.225 25.5138C813.259 20.0593 817.726 15.6496 823.181 15.6832C828.635 15.7168 833.045 20.1839 833.011 25.6385C832.978 31.093 828.511 35.5027 823.056 35.4739L823.061 35.4691Z" fill="#FFE4E6"/>
<path d="M779.257 49.93L823.3 -21.9137L809.429 -22L765.385 49.8437L779.257 49.93Z" fill="#FFE4E6"/>
</g>
<g opacity="0.6">
<path d="M1116.33 6.26927C1116.37 -0.713836 1110.73 -6.42805 1103.74 -6.47267C1096.76 -6.5145 1091.04 -0.867218 1091 6.1131C1090.96 13.0962 1096.6 18.8132 1103.59 18.855C1110.57 18.8969 1116.28 13.2524 1116.33 6.26927ZM1097.91 6.15772C1097.93 2.98409 1100.53 0.41841 1103.7 0.437931C1106.87 0.457453 1109.44 3.0566 1109.42 6.23023C1109.4 9.40386 1106.8 11.9695 1103.63 11.9528C1100.45 11.9333 1097.89 9.33414 1097.91 6.16051L1097.91 6.15772Z" fill="#FFE4E6"/>
<path d="M1136.53 8.05687C1129.55 8.01504 1123.83 13.6595 1123.79 20.6426C1123.75 27.6258 1129.39 33.3428 1136.37 33.3846C1143.36 33.4264 1149.07 27.7819 1149.12 20.7988C1149.16 13.8157 1143.51 8.10149 1136.53 8.05687ZM1136.42 26.4768C1133.24 26.4573 1130.68 23.8581 1130.7 20.6845C1130.72 17.5108 1133.31 14.9452 1136.49 14.9647C1139.66 14.9842 1142.23 17.5833 1142.21 20.757C1142.19 23.9306 1139.59 26.4963 1136.42 26.4796L1136.42 26.4768Z" fill="#FFE4E6"/>
<path d="M1110.93 34.8906L1136.56 -6.9105L1128.49 -6.96069L1102.86 34.8404L1110.93 34.8906Z" fill="#FFE4E6"/>
</g>
<g opacity="0.6">
<path d="M487.328 6.26927C487.37 -0.713836 481.725 -6.42805 474.742 -6.47267C467.759 -6.5145 462.042 -0.867218 462 6.1131C461.958 13.0962 467.603 18.8132 474.586 18.855C481.569 18.8969 487.283 13.2524 487.328 6.26927ZM468.908 6.15772C468.928 2.98409 471.527 0.41841 474.7 0.437931C477.874 0.457453 480.44 3.0566 480.42 6.23023C480.401 9.40386 477.801 11.9695 474.628 11.9528C471.454 11.9333 468.889 9.33414 468.905 6.16051L468.908 6.15772Z" fill="#FFE4E6"/>
<path d="M507.53 8.05687C500.547 8.01504 494.833 13.6595 494.788 20.6426C494.746 27.6258 500.391 33.3428 507.374 33.3846C514.357 33.4264 520.071 27.7819 520.116 20.7988C520.157 13.8157 514.513 8.10149 507.53 8.05687ZM507.418 26.4768C504.245 26.4573 501.676 23.8581 501.696 20.6845C501.715 17.5108 504.314 14.9452 507.488 14.9647C510.662 14.9842 513.227 17.5833 513.208 20.757C513.188 23.9306 510.589 26.4963 507.416 26.4796L507.418 26.4768Z" fill="#FFE4E6"/>
<path d="M481.932 34.8906L507.558 -6.9105L499.487 -6.96069L473.861 34.8404L481.932 34.8906Z" fill="#FFE4E6"/>
</g>
<g opacity="0.6">
<path d="M146.328 82.23C146.37 75.2469 140.725 69.5326 133.742 69.488C126.759 69.4462 121.042 75.0935 121 82.0738C120.958 89.0569 126.603 94.7739 133.586 94.8157C140.569 94.8576 146.283 89.2131 146.328 82.23ZM127.908 82.1184C127.928 78.9448 130.527 76.3791 133.7 76.3986C136.874 76.4181 139.44 79.0173 139.42 82.1909C139.401 85.3646 136.801 87.9302 133.628 87.9135C130.454 87.894 127.889 85.2948 127.905 82.1212L127.908 82.1184Z" fill="#FFE4E6"/>
<path d="M166.53 84.0176C159.547 83.9757 153.833 89.6202 153.788 96.6033C153.746 103.586 159.391 109.303 166.374 109.345C173.357 109.387 179.071 103.743 179.116 96.7595C179.157 89.7764 173.513 84.0622 166.53 84.0176ZM166.418 102.437C163.245 102.418 160.676 99.8188 160.696 96.6452C160.715 93.4715 163.314 90.9059 166.488 90.9254C169.662 90.9449 172.227 93.544 172.208 96.7177C172.188 99.8913 169.589 102.457 166.416 102.44L166.418 102.437Z" fill="#FFE4E6"/>
<path d="M140.932 110.851L166.558 69.0502L158.487 69L132.861 110.801L140.932 110.851Z" fill="#FFE4E6"/>
</g>
<g opacity="0.6">
<path d="M626.328 82.23C626.37 75.2469 620.725 69.5326 613.742 69.488C606.759 69.4462 601.042 75.0935 601 82.0738C600.958 89.0569 606.603 94.7739 613.586 94.8157C620.569 94.8576 626.283 89.2131 626.328 82.23ZM607.908 82.1184C607.928 78.9448 610.527 76.3791 613.7 76.3986C616.874 76.4181 619.44 79.0173 619.42 82.1909C619.401 85.3646 616.801 87.9302 613.628 87.9135C610.454 87.894 607.889 85.2948 607.905 82.1212L607.908 82.1184Z" fill="#FFE4E6"/>
<path d="M646.53 84.0176C639.547 83.9757 633.833 89.6202 633.788 96.6033C633.746 103.586 639.391 109.303 646.374 109.345C653.357 109.387 659.071 103.743 659.116 96.7595C659.157 89.7764 653.513 84.0622 646.53 84.0176ZM646.418 102.437C643.245 102.418 640.676 99.8188 640.696 96.6452C640.715 93.4715 643.314 90.9059 646.488 90.9254C649.662 90.9449 652.227 93.544 652.208 96.7177C652.188 99.8913 649.589 102.457 646.416 102.44L646.418 102.437Z" fill="#FFE4E6"/>
<path d="M620.932 110.851L646.558 69.0502L638.487 69L612.861 110.801L620.932 110.851Z" fill="#FFE4E6"/>
</g>
<g opacity="0.6">
<path d="M1225.33 82.23C1225.37 75.2469 1219.73 69.5326 1212.74 69.488C1205.76 69.4462 1200.04 75.0935 1200 82.0738C1199.96 89.0569 1205.6 94.7739 1212.59 94.8157C1219.57 94.8576 1225.28 89.2131 1225.33 82.23ZM1206.91 82.1184C1206.93 78.9448 1209.53 76.3791 1212.7 76.3986C1215.87 76.4181 1218.44 79.0173 1218.42 82.1909C1218.4 85.3646 1215.8 87.9302 1212.63 87.9135C1209.45 87.894 1206.89 85.2948 1206.91 82.1212L1206.91 82.1184Z" fill="#FFE4E6"/>
<path d="M1245.53 84.0176C1238.55 83.9757 1232.83 89.6202 1232.79 96.6033C1232.75 103.586 1238.39 109.303 1245.37 109.345C1252.36 109.387 1258.07 103.743 1258.12 96.7595C1258.16 89.7764 1252.51 84.0622 1245.53 84.0176ZM1245.42 102.437C1242.24 102.418 1239.68 99.8188 1239.7 96.6452C1239.72 93.4715 1242.31 90.9059 1245.49 90.9254C1248.66 90.9449 1251.23 93.544 1251.21 96.7177C1251.19 99.8913 1248.59 102.457 1245.42 102.44L1245.42 102.437Z" fill="#FFE4E6"/>
<path d="M1219.93 110.851L1245.56 69.0502L1237.49 69L1211.86 110.801L1219.93 110.851Z" fill="#FFE4E6"/>
</g>
<g opacity="0.9">
<path d="M1331.53 0.738428C1331.6 -11.2635 1321.9 -21.0845 1309.9 -21.1612C1297.9 -21.2331 1288.07 -11.5271 1288 0.470016C1287.93 12.4719 1297.63 22.2978 1309.63 22.3697C1321.63 22.4416 1331.45 12.7403 1331.53 0.738428ZM1299.87 0.546705C1299.91 -4.90784 1304.37 -9.31748 1309.83 -9.28393C1315.28 -9.25038 1319.69 -4.78322 1319.66 0.671326C1319.63 6.12587 1315.16 10.5355 1309.7 10.5068C1304.25 10.4732 1299.84 6.00604 1299.87 0.551498L1299.87 0.546705Z" fill="#FFE4E6"/>
<path d="M1366.25 3.8107C1354.25 3.7388 1344.43 13.44 1344.35 25.4419C1344.28 37.4439 1353.98 47.2697 1365.98 47.3416C1377.99 47.4135 1387.81 37.7123 1387.88 25.7104C1387.96 13.7084 1378.25 3.88739 1366.25 3.8107ZM1366.06 35.4691C1360.61 35.4355 1356.19 30.9684 1356.23 25.5138C1356.26 20.0593 1360.73 15.6496 1366.18 15.6832C1371.64 15.7168 1376.04 20.1839 1376.01 25.6385C1375.98 31.093 1371.51 35.5027 1366.06 35.4739L1366.06 35.4691Z" fill="#FFE4E6"/>
<path d="M1322.26 49.93L1366.3 -21.9137L1352.43 -22L1308.39 49.8437L1322.26 49.93Z" fill="#FFE4E6"/>
</g>
<g opacity="0.5">
<path d="M971.531 68.7384C971.603 56.7365 961.902 46.9155 949.9 46.8388C937.898 46.7669 928.072 56.4729 928 68.47C927.929 80.4719 937.63 90.2978 949.632 90.3697C961.634 90.4416 971.455 80.7403 971.531 68.7384ZM939.873 68.5467C939.906 63.0922 944.374 58.6825 949.828 58.7161C955.283 58.7496 959.692 63.2168 959.659 68.6713C959.625 74.1259 955.158 78.5355 949.704 78.5068C944.249 78.4732 939.839 74.006 939.868 68.5515L939.873 68.5467Z" fill="#FFE4E6"/>
<path d="M1006.25 71.8107C994.251 71.7388 984.43 81.44 984.353 93.4419C984.281 105.444 993.982 115.27 1005.98 115.342C1017.99 115.413 1027.81 105.712 1027.88 93.7104C1027.96 81.7084 1018.25 71.8874 1006.25 71.8107ZM1006.06 103.469C1000.61 103.436 996.192 98.9684 996.225 93.5138C996.259 88.0593 1000.73 83.6496 1006.18 83.6832C1011.64 83.7168 1016.04 88.1839 1016.01 93.6385C1015.98 99.093 1011.51 103.503 1006.06 103.474L1006.06 103.469Z" fill="#FFE4E6"/>
<path d="M962.257 117.93L1006.3 46.0863L992.429 46L948.385 117.844L962.257 117.93Z" fill="#FFE4E6"/>
</g>
</g>
<defs>
<clipPath id="clip0_197_9949">
<rect width="1391" height="909" fill="white" transform="translate(-26 -169)"/>
</clipPath>
</defs>
</svg>
